<svg width="119" height="122" viewBox="0 0 119 122" fill="none" xmlns="http://www.w3.org/2000/svg">
<path d="M44.8567 53.3733L42.0335 62.6111H51.4261L48.5486 53.3733C47.9773 51.5266 47.4772 49.4977 47.0195 47.6405C46.9116 47.2031 46.8061 46.7752 46.7026 46.3614H46.5941C46.408 47.1051 46.222 47.901 46.0316 48.7156C45.6663 50.2784 45.285 51.91 44.8567 53.3733Z" fill="#9A9A9A"/>
<path d="M75.8601 55.3767C71.7339 55.3767 69.9966 59.2165 69.7251 61.999H81.3436C81.3979 59.4947 80.3121 55.3767 75.8601 55.3767Z" fill="#9A9A9A"/>
<path fill-rule="evenodd" clip-rule="evenodd" d="M33.7724 15.5897C50.7912 13.64 68.3854 13.64 85.4041 15.5897C94.774 16.6631 102.331 24.2303 103.431 33.8681C105.466 51.7012 105.466 69.7168 103.431 87.5499C102.331 97.1877 94.774 104.755 85.4041 105.828C68.3854 107.778 50.7912 107.778 33.7724 105.828C24.4026 104.755 16.8451 97.1877 15.7454 87.5499C13.7105 69.7167 13.7105 51.7012 15.7454 33.8681C16.8451 24.2303 24.4026 16.6631 33.7724 15.5897ZM55.878 78.4156L52.5662 67.7865H40.9477L37.7987 78.4156H30.9036L42.6307 40.9078H51.1546L63.0446 78.4156H55.878ZM87.6416 63.8911C87.6416 65.171 87.533 66.1727 87.4244 66.7848H69.7251C69.888 71.682 73.6342 73.7967 77.8689 73.7967C80.9636 73.7967 83.1896 73.3515 85.1984 72.5724L86.1757 77.3026C83.8954 78.2487 80.7464 79.0277 76.946 79.0277C68.3678 79.0277 63.3186 73.5741 63.3186 65.2823C63.3186 57.7696 67.7706 50.7021 76.2402 50.7021C84.8726 50.7021 87.6416 57.9366 87.6416 63.8911Z" fill="#9A9A9A"/>
</svg>
