<svg width="123" height="122" viewBox="0 0 123 122" fill="none" xmlns="http://www.w3.org/2000/svg">
<path d="M53.3805 53.3733L50.4867 62.6111H60.1141L57.1647 53.3733C56.5791 51.5267 56.0665 49.4977 55.5973 47.6406C55.4868 47.2031 55.3787 46.7752 55.2726 46.3615H55.1613C54.9706 47.1051 54.7799 47.901 54.5848 48.7156C54.2104 50.2784 53.8195 51.91 53.3805 53.3733Z" fill="#9A9A9A"/>
<path fill-rule="evenodd" clip-rule="evenodd" d="M35.0086 15.5897C52.4528 13.64 70.4868 13.64 87.931 15.5897C97.5351 16.6631 105.282 24.2303 106.409 33.8681C108.494 51.7012 108.494 69.7168 106.409 87.5499C105.282 97.1877 97.5351 104.755 87.931 105.828C70.4868 107.778 52.4528 107.778 35.0086 105.828C25.4045 104.755 17.6581 97.1877 16.5309 87.5499C14.4451 69.7167 14.4451 51.7012 16.5309 33.8681C17.6581 24.2303 25.4045 16.6631 35.0086 15.5897ZM81.3644 51.3143V78.4156H74.4639V51.3143H81.3644ZM74.0743 43.7459C74.0743 41.6313 75.6325 40.0174 77.9141 40.0174C80.2514 40.0174 81.6983 41.6313 81.754 43.7459C81.754 45.805 80.2514 47.4188 77.8585 47.4188C75.5769 47.4188 74.0743 45.805 74.0743 43.7459ZM64.6774 78.4156L61.2827 67.7866H49.3737L46.1461 78.4156H39.0786L51.0989 40.9078H59.8359L72.0231 78.4156H64.6774Z" fill="#9A9A9A"/>
</svg>
