<svg width="120" height="122" viewBox="0 0 120 122" fill="none" xmlns="http://www.w3.org/2000/svg">
<path d="M79.6884 68.6769C79.8513 68.0648 79.9056 67.397 79.9056 66.6736V62.6111C79.9056 62.0546 79.8513 61.3868 79.7427 60.8303C79.1455 58.1592 77.0281 55.9888 73.9877 55.9888C69.6987 55.9888 67.3098 59.8843 67.3098 64.9484C67.3098 69.9012 69.6987 73.5185 73.9335 73.5185C76.6481 73.5185 79.0369 71.6264 79.6884 68.6769Z" fill="#9A9A9A"/>
<path fill-rule="evenodd" clip-rule="evenodd" d="M33.9726 15.5897C50.9914 13.64 68.5856 13.64 85.6043 15.5897C94.9741 16.6631 102.532 24.2303 103.631 33.8681C105.666 51.7012 105.666 69.7168 103.631 87.5499C102.532 97.1877 94.9741 104.755 85.6043 105.828C68.5856 107.778 50.9914 107.778 33.9726 105.828C24.6028 104.755 17.0453 97.1877 15.9456 87.5499C13.9107 69.7167 13.9107 51.7012 15.9456 33.8681C17.0453 24.2303 24.6028 16.6631 33.9726 15.5897ZM79.9056 54.2637V38.9044H86.5836V70.7916C86.5836 73.5741 86.6921 76.5792 86.8007 78.4156H80.8286L80.5571 74.1306H80.4485C78.8741 77.1357 75.6708 79.0278 71.8161 79.0278C65.5182 79.0278 60.5233 73.5185 60.5233 65.171C60.469 56.1001 66.0068 50.7021 72.359 50.7021C75.9966 50.7021 78.6026 52.2603 79.797 54.2637H79.9056ZM49.4409 59.2165L60.5708 78.4156H52.8613L48.8979 70.9586C47.3235 68.0648 46.2919 66.0614 45.2604 63.8911H45.0975C44.2288 66.0614 43.2515 68.0648 41.7857 70.9586L38.1481 78.4156H30.4929L41.3513 59.4391L30.9272 40.9078H38.5824L42.5457 48.6431C43.7402 50.9804 44.6089 52.8168 45.5861 54.9315H45.6947C46.672 52.5942 47.432 50.9247 48.5722 48.6431L52.4812 40.9078H60.1364L49.4409 59.2165Z" fill="#9A9A9A"/>
</svg>
