<svg width="125" height="122" viewBox="0 0 125 122" fill="none" xmlns="http://www.w3.org/2000/svg">
<path d="M51.1841 45.8606C49.2458 45.8606 47.8777 46.0276 47.1366 46.1945V58.8826C47.9917 59.1052 49.1318 59.1609 50.557 59.1609C55.8016 59.1609 58.994 56.6566 58.994 52.2603C58.994 48.0866 56.0297 45.8606 51.1841 45.8606Z" fill="#9A9A9A"/>
<path fill-rule="evenodd" clip-rule="evenodd" d="M35.0828 15.5897C52.9525 13.64 71.4264 13.64 89.2961 15.5897C99.1345 16.6631 107.07 24.2303 108.225 33.8681C110.361 51.7012 110.361 69.7168 108.225 87.5499C107.07 97.1877 99.1345 104.755 89.2961 105.828C71.4264 107.778 52.9525 107.778 35.0829 105.828C25.2445 104.755 17.3092 97.1877 16.1545 87.5499C14.0178 69.7167 14.0178 51.7012 16.1545 33.8681C17.3092 24.2303 25.2445 16.6631 35.0828 15.5897ZM47.1366 78.4156H40.1818V41.4087C42.6901 40.9635 46.1675 40.6296 50.899 40.6296C56.0297 40.6296 59.7921 41.6869 62.2434 43.6903C64.5237 45.5267 66.0059 48.4762 66.0059 51.9821C66.0059 55.5437 64.8657 58.4931 62.6995 60.4965C59.9061 63.2233 55.5166 64.5032 50.557 64.5032C49.2458 64.5032 48.0487 64.4476 47.1366 64.2806V78.4156ZM74.9622 79.0278C71.5988 79.0278 68.5774 78.193 66.5252 77.08L67.8933 72.1272C69.4895 73.0733 72.5109 74.075 75.0192 74.075C78.0976 74.075 79.4657 72.8507 79.4657 71.0699C79.4657 69.2335 78.3256 68.2874 74.9052 67.1188C69.4895 65.2823 67.2093 62.3886 67.2663 59.2165C67.2663 54.4307 71.3137 50.7021 77.7555 50.7021C80.8339 50.7021 83.5132 51.4812 85.1094 52.316L83.7412 57.1575C82.5441 56.4897 80.3208 55.5993 77.8695 55.5993C75.3612 55.5993 73.9931 56.7679 73.9931 58.4374C73.9931 60.1626 75.3042 60.9973 78.8387 62.2216C83.8553 64.0024 86.1925 66.5066 86.2496 70.5134C86.2496 75.4106 82.3161 79.0278 74.9622 79.0278Z" fill="#9A9A9A"/>
</svg>
