<svg width="119" height="122" viewBox="0 0 119 122" fill="none" xmlns="http://www.w3.org/2000/svg">
<path d="M50.2848 45.8606C48.4388 45.8606 47.1358 46.0276 46.43 46.1945V58.8826C47.2444 59.1052 48.3302 59.1609 49.6875 59.1609C54.6824 59.1609 57.7228 56.6566 57.7228 52.2603C57.7228 48.0866 54.8996 45.8606 50.2848 45.8606Z" fill="#9A9A9A"/>
<path fill-rule="evenodd" clip-rule="evenodd" d="M33.5717 15.5897C50.5905 13.64 68.1847 13.64 85.2034 15.5897C94.5733 16.6631 102.131 24.2303 103.23 33.8681C105.265 51.7012 105.265 69.7168 103.23 87.5499C102.131 97.1877 94.5733 104.755 85.2034 105.828C68.1847 107.778 50.5905 107.778 33.5717 105.828C24.2019 104.755 16.6444 97.1877 15.5447 87.5499C13.5098 69.7167 13.5098 51.7012 15.5447 33.8681C16.6444 24.2303 24.2019 16.6631 33.5717 15.5897ZM46.43 78.4156H39.8064V41.4087C42.1952 40.9635 45.507 40.6296 50.0133 40.6296C54.8996 40.6296 58.4829 41.6869 60.8175 43.6903C62.9892 45.5267 64.4007 48.4762 64.4007 51.9821C64.4007 55.5437 63.3149 58.4931 61.2518 60.4965C58.5915 63.2233 54.411 64.5032 49.6875 64.5032C48.4388 64.5032 47.2987 64.4476 46.43 64.2806V78.4156ZM73.7322 78.4156H67.0543V60.0513C67.0543 56.3784 67 53.7629 66.8371 51.3143H72.6464L72.8635 56.4897H73.0807C74.3837 52.6499 77.4784 50.7021 80.3016 50.7021C80.9531 50.7021 81.3331 50.7578 81.8761 50.8691V57.3244C81.3331 57.2131 80.7359 57.1018 79.9215 57.1018C76.7183 57.1018 74.5466 59.2165 73.9494 62.2773C73.8408 62.8894 73.7322 63.6128 73.7322 64.3919V78.4156Z" fill="#9A9A9A"/>
</svg>
