<svg width="126" height="122" viewBox="0 0 126 122" fill="none" xmlns="http://www.w3.org/2000/svg">
<path d="M34.9711 16.7223C37.6438 14.1132 41.2688 12.6475 45.0486 12.6475H59.3003V40.4722H45.0486C41.2688 40.4722 37.6438 39.0065 34.9711 36.3974C32.2984 33.7883 30.7969 30.2496 30.7969 26.5598C30.7969 22.87 32.2984 19.3314 34.9711 16.7223Z" fill="#9A9A9A"/>
<path d="M81.3257 40.4722H67.074V12.6475H81.3257C83.1973 12.6475 85.0505 13.0073 86.7796 13.7065C88.5087 14.4056 90.0798 15.4304 91.4032 16.7223C92.7266 18.0142 93.7763 19.5479 94.4926 21.2358C95.2088 22.9237 95.5774 24.7328 95.5774 26.5598C95.5774 28.3868 95.2088 30.1959 94.4926 31.8839C93.7763 33.5718 92.7266 35.1055 91.4032 36.3974C90.0798 37.6893 88.5087 38.714 86.7796 39.4132C85.0505 40.1124 83.1973 40.4722 81.3257 40.4722Z" fill="#9A9A9A"/>
<path d="M81.3257 48.0608C79.4541 48.0608 77.6009 48.4207 75.8718 49.1198C74.1427 49.819 72.5716 50.8438 71.2482 52.1357C69.9248 53.4276 68.875 54.9612 68.1588 56.6492C67.4426 58.3371 67.074 60.1462 67.074 61.9732C67.074 63.8002 67.4426 65.6093 68.1588 67.2972C68.875 68.9852 69.9248 70.5189 71.2482 71.8107C72.5716 73.1026 74.1427 74.1274 75.8718 74.8266C77.6009 75.5257 79.4541 75.8856 81.3257 75.8856C83.1973 75.8856 85.0505 75.5257 86.7796 74.8266C88.5087 74.1274 90.0798 73.1026 91.4032 71.8107C92.7266 70.5189 93.7763 68.9852 94.4926 67.2972C95.2088 65.6093 95.5774 63.8002 95.5774 61.9732C95.5774 60.1462 95.2088 58.3371 94.4926 56.6492C93.7763 54.9612 92.7266 53.4275 91.4032 52.1357C90.0798 50.8438 88.5087 49.819 86.7796 49.1198C85.0505 48.4207 83.1973 48.0608 81.3257 48.0608Z" fill="#9A9A9A"/>
<path d="M34.9711 87.549C37.6438 84.9399 41.2688 83.4742 45.0486 83.4742H59.3003V97.3866C59.3003 101.076 57.7988 104.615 55.1261 107.224C52.4533 109.833 48.8284 111.299 45.0486 111.299C41.2688 111.299 37.6438 109.833 34.9711 107.224C32.2984 104.615 30.7969 101.076 30.7969 97.3866C30.7969 93.6968 32.2984 90.1581 34.9711 87.549Z" fill="#9A9A9A"/>
<path d="M45.0486 48.0608C41.2688 48.0608 37.6438 49.5266 34.9711 52.1357C32.2984 54.7447 30.7969 58.2834 30.7969 61.9732C30.7969 65.663 32.2984 69.2017 34.9711 71.8107C37.6438 74.4198 41.2688 75.8856 45.0486 75.8856H59.3003V48.0608H45.0486Z" fill="#9A9A9A"/>
</svg>
