<svg width="40" height="26" viewBox="0 0 40 26" fill="none" xmlns="http://www.w3.org/2000/svg">
<path fill-rule="evenodd" clip-rule="evenodd" d="M16.651 12.0181C17.6293 11.5952 18.4793 10.9059 19.1113 10.0228C19.6922 9.08506 19.9808 7.98431 19.9378 6.87027C19.9755 5.85435 19.7846 4.84328 19.3804 3.91724C19.0408 3.11497 18.4956 2.42482 17.8043 1.92195C17.0713 1.39913 16.239 1.04534 15.3632 0.884398C14.3269 0.658757 13.2699 0.551703 12.211 0.565152H1.28588C0.982337 0.565152 0.736267 0.806978 0.736267 1.10529V25.1258C0.736267 25.4241 0.982336 25.6659 1.28588 25.6659H12.4609C13.5309 25.6667 14.5966 25.5259 15.6323 25.2469C16.614 24.9833 17.5441 24.5444 18.3809 23.95C19.1915 23.3668 19.8516 22.5856 20.303 21.6753C20.8025 20.6573 21.0471 19.5251 21.0141 18.3831C21.0505 16.9679 20.6682 15.5752 19.9186 14.3925C19.1124 13.2032 17.9168 12.3592 16.5549 12.0181H16.651ZM6.32393 4.61504C6.12157 4.61504 5.95752 4.77625 5.95752 4.97513V10.5565C5.95752 10.7554 6.12157 10.9166 6.32393 10.9166H11.4536C13.2243 10.9166 14.6597 9.50595 14.6597 7.76582C14.6597 6.02569 13.2243 4.61504 11.4536 4.61504H6.32393ZM5.95752 14.4275C5.95752 14.2286 6.12157 14.0674 6.32393 14.0674H11.6826C13.8327 14.0674 15.5757 15.7803 15.5757 17.8933C15.5757 20.0064 13.8327 21.7193 11.6826 21.7193H6.32393C6.12157 21.7193 5.95752 21.5581 5.95752 21.3592V14.4275Z" fill="#9A9A9A"/>
<path d="M26.2728 1.84214H34.9259C35.2265 1.84214 35.4714 2.07957 35.4754 2.37502L35.4991 4.10811C35.5032 4.40923 35.256 4.6555 34.9495 4.6555H26.2728C25.9693 4.6555 25.7232 4.41367 25.7232 4.11536V2.38227C25.7232 2.08396 25.9693 1.84214 26.2728 1.84214Z" fill="#9A9A9A"/>
<path fill-rule="evenodd" clip-rule="evenodd" d="M30.9128 21.9347C31.7992 21.9629 32.6722 21.705 33.4115 21.1965C33.8876 20.885 34.2668 20.4401 34.5068 19.9155C34.5703 19.7767 34.7066 19.68 34.8616 19.68H38.3809C38.6195 19.68 38.7946 19.9008 38.7243 20.1249C38.1878 21.8337 37.1357 23.3232 35.718 24.369C34.1939 25.338 32.4301 25.8235 30.6437 25.7657C29.3705 25.7882 28.1049 25.5579 26.9149 25.0873C25.8477 24.648 24.8889 23.9662 24.1087 23.092C23.3546 22.2015 22.7795 21.1636 22.4173 20.0392C21.9907 18.7975 21.7824 17.4864 21.8022 16.1683C21.7905 14.8687 22.0054 13.5776 22.4365 12.3573C22.8382 11.227 23.4598 10.1947 24.2624 9.32448C25.0674 8.47136 26.0279 7.79308 27.0879 7.32919C28.2455 6.83243 29.4872 6.58141 30.7398 6.59093C32.0717 6.56958 33.3893 6.87734 34.584 7.48881C35.6577 8.06928 36.5909 8.8947 37.3133 9.90312C38.0311 10.9427 38.5528 12.1139 38.851 13.355C39.1592 14.6594 39.2695 16.0058 39.1777 17.3456H26.4536C26.3973 18.6322 26.8246 19.8913 27.6453 20.8573C28.0892 21.2606 28.6085 21.5645 29.1708 21.7499C29.733 21.9353 30.3261 21.9982 30.9128 21.9347ZM26.5679 13.8852C26.5679 13.9858 26.6509 14.0674 26.7533 14.0674H34.1687C34.2711 14.0674 34.3541 13.9858 34.3541 13.8852C34.3541 11.8728 32.6941 10.2414 30.6464 10.2414H30.2756C28.2279 10.2414 26.5679 11.8728 26.5679 13.8852Z" fill="#9A9A9A"/>
</svg>
