<svg width="26" height="25" viewBox="0 0 26 25" fill="none" xmlns="http://www.w3.org/2000/svg">
<path d="M13.2028 0.564026C6.45803 0.564026 0.987671 6.03337 0.987671 12.7792C0.987671 18.1763 4.48732 22.7549 9.34183 24.3704C9.95157 24.4834 10.1491 24.1047 10.1491 23.783V21.509C6.7512 22.248 6.04374 20.0676 6.04374 20.0676C5.48795 18.6557 4.68683 18.2801 4.68683 18.2801C3.57831 17.5217 4.77132 17.538 4.77132 17.538C5.99793 17.6235 6.6433 18.7972 6.6433 18.7972C7.73248 20.6641 9.50063 20.1246 10.1979 19.8121C10.3068 19.0232 10.6234 18.4837 10.9736 18.1793C8.26079 17.8689 5.40855 16.8214 5.40855 12.142C5.40855 10.8075 5.88596 9.71828 6.66671 8.86322C6.54049 8.55479 6.12212 7.31189 6.78581 5.63027C6.78581 5.63027 7.81188 5.3025 10.146 6.88233C11.1202 6.61156 12.1646 6.47617 13.2028 6.47108C14.2411 6.47617 15.2866 6.61156 16.2627 6.88233C18.5948 5.3025 19.6189 5.63027 19.6189 5.63027C20.2836 7.31291 19.8652 8.5558 19.739 8.86322C20.5228 9.71828 20.9961 10.8085 20.9961 12.142C20.9961 16.8336 18.1388 17.8668 15.4189 18.1691C15.8566 18.5478 16.2566 19.2909 16.2566 20.431V23.783C16.2566 24.1078 16.4521 24.4895 17.072 24.3694C21.9224 22.7519 25.418 18.1742 25.418 12.7792C25.418 6.03337 19.9487 0.564026 13.2028 0.564026Z" fill="#9A9A9A"/>
</svg>
