<svg width="26" height="25" viewBox="0 0 26 25" fill="none" xmlns="http://www.w3.org/2000/svg">
<path d="M12.9546 8.46761C10.5734 8.46761 8.64298 10.398 8.64298 12.7792C8.64298 15.1604 10.5734 17.0908 12.9546 17.0908C15.3358 17.0908 17.2662 15.1604 17.2662 12.7792C17.2662 10.398 15.3358 8.46761 12.9546 8.46761Z" fill="#9A9A9A"/>
<path fill-rule="evenodd" clip-rule="evenodd" d="M6.01561 0.947471C10.59 0.436211 15.3192 0.436211 19.8936 0.947471C22.4121 1.22895 24.4434 3.21332 24.739 5.74065C25.286 10.4171 25.286 15.1413 24.739 19.8178C24.4434 22.3451 22.4121 24.3295 19.8936 24.6109C15.3192 25.1222 10.5901 25.1222 6.01561 24.6109C3.49711 24.3295 1.46576 22.3451 1.17016 19.8178C0.623211 15.1413 0.623211 10.4171 1.17016 5.74065C1.46576 3.21332 3.49711 1.22895 6.01561 0.947471ZM19.5878 4.81933C18.8551 4.81933 18.2612 5.41329 18.2612 6.14598C18.2612 6.87866 18.8551 7.47262 19.5878 7.47262C20.3205 7.47262 20.9145 6.87866 20.9145 6.14598C20.9145 5.41329 20.3205 4.81933 19.5878 4.81933ZM6.65302 12.7792C6.65302 9.29895 9.47432 6.47764 12.9546 6.47764C16.4348 6.47764 19.2562 9.29895 19.2562 12.7792C19.2562 16.2595 16.4348 19.0808 12.9546 19.0808C9.47432 19.0808 6.65302 16.2595 6.65302 12.7792Z" fill="#9A9A9A"/>
</svg>
