<svg width="25" height="26" viewBox="0 0 25 26" fill="none" xmlns="http://www.w3.org/2000/svg">
<path d="M2.86649 0.356323C1.30953 0.356323 0.0473633 1.61849 0.0473633 3.17545C0.0473633 4.73241 1.30953 5.99457 2.86649 5.99457C4.42345 5.99457 5.68561 4.73241 5.68561 3.17545C5.68561 1.61849 4.42345 0.356323 2.86649 0.356323Z" fill="#9A9A9A"/>
<path d="M0.213194 8.3162C0.121608 8.3162 0.0473633 8.39045 0.0473633 8.48203V25.7284C0.0473633 25.82 0.121608 25.8943 0.213194 25.8943H5.51978C5.61137 25.8943 5.68561 25.82 5.68561 25.7284V8.48203C5.68561 8.39045 5.61137 8.3162 5.51978 8.3162H0.213194Z" fill="#9A9A9A"/>
<path d="M8.8364 8.3162C8.74481 8.3162 8.67057 8.39045 8.67057 8.48203V25.7284C8.67057 25.82 8.74481 25.8943 8.8364 25.8943H14.143C14.2346 25.8943 14.3088 25.82 14.3088 25.7284V16.4419C14.3088 15.7822 14.5709 15.1495 15.0374 14.683C15.5039 14.2165 16.1366 13.9544 16.7963 13.9544C17.456 13.9544 18.0887 14.2165 18.5552 14.683C19.0217 15.1495 19.2837 15.7822 19.2837 16.4419V25.7284C19.2837 25.82 19.358 25.8943 19.4496 25.8943H24.7562C24.8477 25.8943 24.922 25.82 24.922 25.7284V14.2931C24.922 11.0736 22.122 8.55499 18.9187 8.8462C17.9308 8.936 16.9541 9.18158 16.042 9.57246L14.3088 10.3153V8.48203C14.3088 8.39045 14.2346 8.3162 14.143 8.3162H8.8364Z" fill="#9A9A9A"/>
</svg>
