<svg width="27" height="27" viewBox="0 0 27 27" fill="none" xmlns="http://www.w3.org/2000/svg">
<path fill-rule="evenodd" clip-rule="evenodd" d="M0.609142 26.0023C0.5006 26.3963 0.859443 26.7599 1.25485 26.6567L7.36716 25.0602C9.29658 26.1053 11.4688 26.6604 13.6805 26.6604H13.6871C20.965 26.6604 26.8978 20.7621 26.8978 13.5117C26.8978 9.99752 25.526 6.69231 23.0323 4.21011C20.5385 1.72803 17.2243 0.356323 13.687 0.356323C6.4091 0.356323 0.47638 6.25466 0.47638 13.5052C0.475553 15.8117 1.08438 18.0779 2.24173 20.0763L0.609142 26.0023ZM9.50004 7.21489C9.74277 7.22139 10.0119 7.23452 10.2679 7.80283C10.4377 8.18116 10.7237 8.87765 10.9566 9.44501C11.1379 9.8865 11.2871 10.2498 11.3244 10.3242C11.4097 10.494 11.4623 10.6899 11.3507 10.9185C11.3375 10.9455 11.3251 10.9712 11.3132 10.9961C11.2237 11.1818 11.16 11.314 11.0095 11.4868C10.9476 11.5578 10.8831 11.6357 10.8189 11.7133C10.706 11.8498 10.5937 11.9854 10.4975 12.0813C10.3269 12.2509 10.1497 12.434 10.3465 12.7736C10.5435 13.1132 11.2326 14.2302 12.2498 15.1316C13.3434 16.1052 14.2944 16.5156 14.7751 16.723C14.8684 16.7632 14.944 16.7958 14.9995 16.8235C15.3408 16.9933 15.5442 16.9671 15.7411 16.7385C15.938 16.5099 16.5942 15.7456 16.824 15.406C17.0471 15.0664 17.2768 15.1186 17.5918 15.2362C17.9068 15.3537 19.5868 16.1767 19.928 16.3466C19.9955 16.3801 20.0586 16.4104 20.1171 16.4384C20.3545 16.5523 20.5159 16.6297 20.5843 16.7451C20.6696 16.8887 20.6696 17.5681 20.3875 18.365C20.0988 19.1619 18.7074 19.9261 18.0774 19.9849C18.0177 19.9905 17.9584 19.9977 17.8973 20.0051C17.3199 20.0749 16.587 20.1636 13.9757 19.1357C10.7581 17.8704 8.6341 14.7311 8.20468 14.0964C8.17078 14.0463 8.14744 14.0118 8.13496 13.995L8.1277 13.9853C7.93233 13.7239 6.73708 12.1246 6.73708 10.4745C6.73708 8.89571 7.51479 8.07377 7.86952 7.69887C7.892 7.67511 7.91278 7.65315 7.93156 7.6329C8.24652 7.29329 8.6141 7.20838 8.84376 7.20838C9.07353 7.20838 9.30318 7.20838 9.50004 7.21489Z" fill="#9A9A9A"/>
</svg>
